<svg id="Layer_1" data-name="Layer 1" xmlns="http://www.w3.org/2000/svg" xmlns:xlink="http://www.w3.org/1999/xlink" viewBox="0 0 2020 1000"><defs><style>.cls-1{fill:url(#linear-gradient);}.cls-2,.cls-3{fill:#3a3a3a;}.cls-3{font-size:212.19px;font-family:ProximaNova-Black, Proxima Nova;font-weight:800;}</style><linearGradient id="linear-gradient" x1="150.42" y1="359.91" x2="1420.18" y2="359.91" gradientUnits="userSpaceOnUse"><stop offset="0" stop-color="#cdd934"/><stop offset="1" stop-color="#3fbeb5"/></linearGradient></defs><path class="cls-1" d="M602.55,453H514.48v-87.7h88.07ZM337,365.29H250.33v26.38L298.46,453H409.13Zm-101,87.7V374.65h0v-9.36H150.42V453Zm931.38-87.7H1081.8V453h85.51ZM910.07,395.85l-18.28-30.56H799.36L851.89,453h58.18ZM759.74,365.29H677.3V453h82.44Zm247.31,0H924.42V453h82.63ZM290.43,263.23l-40.1,46.92v40.78h74.82l-4.73-5.75L395,263.23Zm-140,0v87.7H236V325.19h0v-62Zm931.38,87.7h85.51v-87.7H1081.8Zm210.7-77.57q16.63,12.36,26.63,33.15,8.7,18.12,9.82,44.42h91.19q-1.26-47.4-17.81-80.47c-1.23-2.46-2.52-4.86-3.83-7.23H1275.64A101.58,101.58,0,0,1,1292.5,273.36Zm36.5,91.93q-.95,26.83-9.87,45.66-10,21.06-26.63,33.68a101.31,101.31,0,0,1-13,8.36h117.92q2.7-4.73,5.17-9.68,16.5-33.17,17.59-78Zm-53.55-116.41h114.13a147.55,147.55,0,0,0-34.35-35.51q-29.19-21.3-66.57-30.51-6.59-1.63-13.21-3ZM774.09,323.11l16.67,27.82H883.2l-52.46-87.7H774.09Zm150.33,27.82h82.63v-87.7H924.42Zm-247.12,0h82.44v-87.7H677.3Zm-162.82,0h88.07v-87.7H514.48ZM774.09,248.88h48.06l-45-75.23h-3.06ZM924.42,467.34v78.84h82.63V467.34Zm-164.68,0H677.3v78.84h82.44Zm150.33,0H860.49l47.23,78.84h2.35Zm-395.59,0v78.84h88.07V467.34Zm746.61,0h-33.17a191.42,191.42,0,0,1-19.13,1h-26.07v77.88H1217a256.61,256.61,0,0,0,44.11-3.83Zm14.36,0v72.08c5.1-1.19,10.19-2.52,15.26-4A192.13,192.13,0,0,0,1356,501.71a163,163,0,0,0,32.33-34.37Zm-92.73-218.46h78.37V177.34a315.42,315.42,0,0,0-48.21-3.69h-30.16ZM1168.36,468.3h-1v-1H1081.8v78.84h86.56Zm-858.63-1,61.89,78.84H485.81l-64.87-78.84ZM924.42,248.88h82.63V173.65H924.42Zm243.94,0V173.65H1081.8v75.23Zm-408.62,0V173.65H677.3v75.23Zm-351.64,0,68.49-75.23H367L302.7,248.88Zm-172.17,0V173.65H150.42v75.23Zm366.62,0V173.65H514.48v75.23ZM150.42,467.34v78.84h85.51V467.34Z"/><path class="cls-2" d="M1955.61,732.26c-1.94,13-11.3,25.75-18,25.75-9.09,0-6.06-18.18-5.51-21.75L1950,621c-6.33,8.27-12.67,11.85-21.21,11.85-16.25,0-25.33-13-49.29-13-47.92,0-84.38,48.54-87.86,91l-2.61,3.65c-12.12,15.16-31.12,20-44.34,20-30.3,0-42.69-24.78-42.69-51.22v-3.31c66.1,10.61,93.36-8.81,93.36-29.19,0-25.61-31.39-30.85-52.88-30.85-52.32,0-92.53,42.42-92.53,89.5a70.9,70.9,0,0,0,2.68,19.8l-.17,3.07c-1.92,13-11.29,25.75-18,25.75-9.09,0-6.06-18.18-5.51-21.75l3.62-16,1-4.73.83-4.39,1.6-8.69.34-1.91.85-3.86c.63-2.88,1.2-5.76,1.79-8.64,1.2-5.75,2.31-11.51,3.43-17.27s2.21-11.52,3.28-17.29,2.17-11.52,3.16-17.3q2.07-11.85,4.13-23.7l3.87-23.23c1.24-7.47,2.46-14.94,3.6-22.43l2.72-17.38,1.35-8.73c.46-3,.92-6,1.34-9q1.3-9,2.21-18.11c.64-6.08,1.13-12.19,1.45-18.37a247.83,247.83,0,0,0-.54-37.86,131.82,131.82,0,0,0-3.43-20,79.24,79.24,0,0,0-3.47-10.52,55,55,0,0,0-6-11,37.22,37.22,0,0,0-10.89-10.32,31,31,0,0,0-15.77-4.57,32.9,32.9,0,0,0-7.45.71,39,39,0,0,0-6.45,1.92,51.48,51.48,0,0,0-10.44,5.6,85.66,85.66,0,0,0-15.42,13.88,134.46,134.46,0,0,0-11.76,15.4,181.68,181.68,0,0,0-17.24,33.41q-3.39,8.72-5.92,17.76a158.14,158.14,0,0,0-3.9,18.42,113.13,113.13,0,0,0,.47,38.22,81.41,81.41,0,0,0,16.26,35.62,86.33,86.33,0,0,0,30.61,23.63l1,.48,4.06-16.77A68.06,68.06,0,0,1,1581.44,571a63,63,0,0,1-11.8-28.05,94.49,94.49,0,0,1,.56-31.71,121.81,121.81,0,0,1,3.92-15.82,130.8,130.8,0,0,1,5.89-15.3,136.33,136.33,0,0,1,7.66-14.5,124.07,124.07,0,0,1,9.24-13.35,98.81,98.81,0,0,1,10.68-11.59,56.43,56.43,0,0,1,11.61-8.44,23.53,23.53,0,0,1,5.34-2.05,6.38,6.38,0,0,1,3.33-.1.81.81,0,0,1,.52.34,2.25,2.25,0,0,1,.23.4,22,22,0,0,1,1.24,2.2,37.68,37.68,0,0,1,2.87,11.19,101.62,101.62,0,0,1,.71,14.87,261.36,261.36,0,0,1-3,32.31c-1.65,11-3.75,22-6.08,33.09-.58,2.77-1.19,5.54-1.81,8.31l-1.93,8.52-3.9,17.13c-2.44,10.57-4.74,21.16-7,31.75l-5,23.21q-1.44,6.84-2.89,13.69c-1.23,5.73-2.34,11.47-3.52,17.2s-2.33,11.46-3.43,17.2l-3.32,17.22-3,14.06-1.92,8.35-1,4.11-.93,3.77-2.92,13.65h0c-.55,3.55-.92,6.82-1.14,9.86-2,12.88-11.29,25.54-18,25.54-9.09,0-6.06-18.18-5.51-21.75l11.29-71.47c4.13-26.44-2.2-44.9-23.68-44.9-19.83,0-45.72,15.7-67.48,50.68l3.86-19.28c4.26-21.75-5.24-30.3-20.66-30.3-19,0-40.56,10.79-57.24,24.09v0c-11.62-15.7-31.22-25.22-55.35-25.22-49.44,0-90.33,38.7-90.33,86.48,0,36.35,27.54,62,66.78,62,49.3,0,90.47-40.63,90.47-86.49,0-14-4-26.33-11.22-36.27,5.09-3.67,15.39-10.81,19.3-10.81,11.43,0,7.85,17.62,6.47,26.72l-16.25,106.85a251.65,251.65,0,0,1,49.85-2.76l14.73-93.91c11.57-18.59,25.89-34.29,34.7-34.29,6.34,0,9.65,7.71,6.61,27.54l-9,57.69c-6,39.94,9.37,46.55,27,46.55s37.91-11.06,43.41-32.28c-.64,27.3,13.07,32.28,28.34,32.28,19,0,40.76-12.66,44.34-36.9v-1.39c7.69,23.82,28.64,37.47,55.73,37.47,35.81,0,63.07-24,80.7-53.44l2-3c-.13,1.86-.21,3.7-.21,5.52,0,30.56,17.63,51,41.32,51,20.93,0,38.83-11,49.85-30.3-.28,26.72,14.32,31.12,29.46,31.12,19,0,40.76-12.66,44.34-36.9ZM1740,620.85c10.19,0,14.59,9.23,14.59,19.14,0,17.22-15.42,42.84-52.46,39C1703.34,650.6,1717.66,620.85,1740,620.85ZM1324.46,767.37c-12.12,0-16.67-11.84-16.67-28.09,0-29.6,9.65-118.43,40-118.43,12.93,0,16.79,12.12,16.79,28.52C1364.53,681.73,1354.9,767.37,1324.46,767.37Zm571.66-115L1882.62,736c-.41,2.63-13.63,22-23.54,22-13.5,0-15.7-17.49-15.7-32.63,0-45.73,17.76-104.39,41.17-104.39C1898.18,621,1899.69,630.08,1896.12,652.39ZM1606.75,270.11a260,260,0,0,1,55.78,41.69,196,196,0,0,1,40,56.26A181.92,181.92,0,0,1,1714,400.49c1.46,5.55,2.51,11.2,3.48,16.85s1.53,11.37,1.89,17.09l.27,4.29.13,4.3c.13,2.86.09,5.73.07,8.6,0,5.74-.23,11.53-.61,17.26a251.74,251.74,0,0,1-4.38,34.1,181.6,181.6,0,0,1-9.69,32.57,124.78,124.78,0,0,1-16.41,29,89.36,89.36,0,0,1-24,21.84c-.45.27-.93.52-1.39.78L1661,605a89.62,89.62,0,0,0,11.56-6.41,103.69,103.69,0,0,0,26.89-26.09A137.45,137.45,0,0,0,1716.58,540a193.08,193.08,0,0,0,9.34-35,263.23,263.23,0,0,0,3.54-35.67c.21-6,.28-11.88.09-17.85-.1-3-.19-6-.44-9l-.32-4.48-.48-4.46c-.6-5.95-1.6-11.85-2.67-17.73-1.22-5.86-2.52-11.69-4.25-17.42a188.16,188.16,0,0,0-13.13-33.25,206.65,206.65,0,0,0-42.84-56.42c-17.24-16.21-36.88-29.58-57.57-40.7a341.15,341.15,0,0,0-65.14-26.49,346.7,346.7,0,0,0-34.2-8.12,229.83,229.83,0,0,0-34.89-4c23.44,1,46.51,6.07,68.82,13A339,339,0,0,1,1606.75,270.11Z"/><text class="cls-3" transform="translate(948.18 765.94)">by</text></svg>