<svg id="Layer_1" data-name="Layer 1" xmlns="http://www.w3.org/2000/svg" viewBox="0 0 1000 1000"><defs><style>.cls-1{fill:#fff;}</style></defs><path id="Key" class="cls-1" d="M914.81,471.75C884.89,612.06,746.89,701.56,606.57,671.64a259.74,259.74,0,0,1-46.15-14.45L517.48,688.8a35.39,35.39,0,0,1-28.35,6.12l-53.7-11.43-12.28,57.72a35.38,35.38,0,0,1-42,27.25h0l-57.75-12.28-12.28,57.71a35.37,35.37,0,0,1-42,27.25h0L107.55,806.76a35.37,35.37,0,0,1-27.25-42h0l24-112.6a35.36,35.36,0,0,1,15.34-22.31L402.72,446C387.1,303.48,490,175.26,632.55,159.64s270.77,87.29,286.39,229.84a259.75,259.75,0,0,1-4.13,82.26ZM655.32,348.58A89.9,89.9,0,1,0,762,279.35h0A89.89,89.89,0,0,0,655.32,348.58Z"/></svg>