<svg id="Layer_1" data-name="Layer 1" xmlns="http://www.w3.org/2000/svg" viewBox="0 0 1000 1000"><defs><style>.cls-1{fill:#fff;}</style></defs><g id="WCloud"><path id="Subtraction_1" data-name="Subtraction 1" class="cls-1" d="M764.35,820.54H257.61a190.68,190.68,0,0,1-77.16-16.2,197.53,197.53,0,0,1-63-44.17,206,206,0,0,1-42.5-65.49,214.39,214.39,0,0,1-5.72-144.52,208.66,208.66,0,0,1,27.46-56,203.63,203.63,0,0,1,41.92-44.46A195.51,195.51,0,0,1,191.8,420v-.84c-.12-3.52-.25-7.16-.25-10.75a235.35,235.35,0,0,1,17.31-89.13,229,229,0,0,1,47.21-72.78,219.2,219.2,0,0,1,70-49.05,213.33,213.33,0,0,1,197.59,13.64,226.41,226.41,0,0,1,79.17,83.14,127.8,127.8,0,0,1,124.85-12.4,131.92,131.92,0,0,1,42,29.45A137.45,137.45,0,0,1,798.07,355a141.18,141.18,0,0,1,10.41,53.46,142.8,142.8,0,0,1-8.8,49.52,170.23,170.23,0,0,1,56,22.7,178.73,178.73,0,0,1,44.7,40.12A184.8,184.8,0,0,1,930,574.36a190.64,190.64,0,0,1-3.12,134.34,183.21,183.21,0,0,1-37.77,58.22,175.59,175.59,0,0,1-56,39.24A169.42,169.42,0,0,1,764.35,820.54ZM500.6,508.4h0l48.63,199.13c.73,4.71,3.75,9,8.48,12.11a33,33,0,0,0,17.29,4h20.51c12.7.9,24-6.26,25.12-16,0-.2,0-.4.06-.61L677.53,429c1.55-5,.13-10.31-3.86-14.46a25.91,25.91,0,0,0-17.25-4.82H640.61c-12.52-.79-23.5,6.35-24.53,15.93a10.34,10.34,0,0,0-.07,1.11L584.38,634,535.74,425.85c-.73-4.71-3.76-9-8.49-12.1a32.94,32.94,0,0,0-17.28-4H492.4a32.94,32.94,0,0,0-17.28,4c-4.73,3.06-7.76,7.39-8.49,12.1L418,634,386.37,426.75c-.46-4.74-3.11-9.19-7.48-12.55a29.26,29.26,0,0,0-17.12-4.49H342.42a25.86,25.86,0,0,0-17.23,4.82c-4,4.15-5.4,9.44-3.86,14.46l56.84,278.09c.73,9.75,11.65,17.2,24.39,16.64l.79,0H426.2a33,33,0,0,0,17.28-4c4.73-3.07,7.76-7.4,8.49-12.11Z"/></g></svg>