<svg id="Layer_1" data-name="Layer 1" xmlns="http://www.w3.org/2000/svg" xmlns:xlink="http://www.w3.org/1999/xlink" viewBox="0 0 2020 1000"><defs><style>.cls-1{fill:url(#linear-gradient);}</style><linearGradient id="linear-gradient" x1="91.64" y1="500" x2="1928.36" y2="500" gradientUnits="userSpaceOnUse"><stop offset="0" stop-color="#cdd934"/><stop offset="1" stop-color="#3fbeb5"/></linearGradient></defs><path class="cls-1" d="M745.65,634.63H618.25V507.78h127.4ZM361.48,507.78H236.15v38.16l69.63,88.69H465.86ZM215.33,634.63V521.31h0V507.78H91.64V634.63ZM1562.59,507.78H1438.9V634.63h123.69ZM1190.48,552,1164,507.78h-133.7l76,126.85h84.15ZM973,507.78H853.78V634.63H973Zm357.75,0H1211.25V634.63h119.52ZM294.16,360.15l-58,67.86v59H344.39l-6.85-8.32L445.46,360.15Zm-202.52,0V487H215.38V449.77h0V360.15ZM1438.9,487h123.69V360.15H1438.9ZM1743.68,374.8q24.06,17.88,38.52,47.95Q1794.79,449,1796.4,487h131.91q-1.83-68.56-25.76-116.4c-1.78-3.57-3.64-7-5.55-10.46H1719.29A147.39,147.39,0,0,1,1743.68,374.8Zm52.79,133q-1.37,38.81-14.27,66.05-14.45,30.45-38.52,48.71a144.76,144.76,0,0,1-18.81,12.09h170.58c2.59-4.55,5.09-9.2,7.48-14q23.85-48,25.43-112.86ZM1719,339.38H1884.1A213.26,213.26,0,0,0,1834.41,288q-42.21-30.82-96.28-44.15-9.54-2.34-19.12-4.27ZM993.79,446.76,1017.9,487h133.71l-75.88-126.86H993.79ZM1211.25,487h119.52V360.15H1211.25Zm-357.47,0H973V360.15H853.78Zm-235.53,0h127.4V360.15H618.25ZM993.79,339.38h69.51L998.21,230.57h-4.42Zm217.46,316v114h119.52v-114ZM973,655.4H853.78v114H973Zm217.46,0h-71.71l68.31,114h3.4Zm-572.23,0v114h127.4v-114Zm1080,0h-48c-9.08.91-18.3,1.39-27.68,1.39h-37.7V769.43h49.55a370.54,370.54,0,0,0,63.81-5.53Zm20.77,0V759.67c7.38-1.73,14.74-3.66,22.08-5.84a278.08,278.08,0,0,0,94.43-48.71,235.67,235.67,0,0,0,46.77-49.72Zm-134.13-316h113.36V235.91a456,456,0,0,0-69.73-5.34h-43.63Zm-20.77,317.41h-1.52V655.4H1438.9v114h125.21Zm-1242-1.39,89.53,114H576.78L483,655.4Zm889.17-316h119.52V230.57H1211.25Zm352.86,0V230.57H1438.9V339.38Zm-591.09,0V230.57H853.78V339.38Zm-508.65,0,99.07-108.81H404.94l-93,108.81Zm-249,0V230.57H91.64V339.38Zm530.32,0V230.57H618.25V339.38Zm-654,316v114H215.33v-114Z"/></svg>