<svg id="Layer_1" data-name="Layer 1" xmlns="http://www.w3.org/2000/svg" viewBox="0 0 1000 1000"><defs><style>.cls-1{fill:#fff;}</style></defs><path id="Acronym" class="cls-1" d="M861.39,590.35H138.61a60.25,60.25,0,0,0-60.23,60.23v60.23A60.24,60.24,0,0,0,138.61,771H861.39a60.24,60.24,0,0,0,60.23-60.23V650.58A60.25,60.25,0,0,0,861.39,590.35Zm0-361.39H138.61a60.24,60.24,0,0,0-60.23,60.23v60.23a60.24,60.24,0,0,0,60.23,60.23H861.39a60.24,60.24,0,0,0,60.23-60.23V289.19A60.24,60.24,0,0,0,861.39,229Z"/></svg>